<?xml version="1.0" encoding="utf-8"?>
<svg version="1.1" id="Layer_1" xmlns="http://www.w3.org/2000/svg" xmlns:xlink="http://www.w3.org/1999/xlink" x="0px" y="0px"
	 viewBox="0 0 76 76" style="fill:currentcolor" xml:space="preserve">
<g>
	<g>
		<ellipse transform="matrix(0.982 -0.1891 0.1891 0.982 -2.5511 11.0446)" cx="56.6" cy="18.89" rx="4.5" ry="4.5"/>
		<circle cx="38.37" cy="37.11" r="4.5"/>
		<circle cx="56.6" cy="37.11" r="4.5"/>
		<circle cx="56.6" cy="55.32" r="4.5"/>
		<circle cx="18.99" cy="56.11" r="4.5"/>
		<circle cx="18.99" cy="18.89" r="4.5"/>
		<path d="M45.03,18.11c0-3.68-2.98-6.66-6.66-6.66c-3.68,0-6.66,2.98-6.66,6.66c0,1.53,0.52,2.94,1.39,4.07
			L22.75,32.58c-1.07-0.73-2.36-1.16-3.75-1.16c-3.68,0-6.66,2.98-6.66,6.66s2.98,6.66,6.66,6.66c1.37,0,2.65-0.42,3.71-1.13
			l10.12,8.81c-0.7,1.05-1.11,2.32-1.11,3.68c0,3.68,2.98,6.66,6.66,6.66c3.68,0,6.66-2.98,6.66-6.66s-2.98-6.66-6.66-6.66
			c-1.69,0-3.22,0.63-4.4,1.66l-9.95-8.66c1.01-1.17,1.63-2.69,1.63-4.36c0-1.66-0.61-3.17-1.6-4.33l10.29-10.34
			c1.12,0.85,2.51,1.36,4.03,1.36C42.05,24.77,45.03,21.79,45.03,18.11z"/>
	</g>
</g>
</svg>
